<svg id="Layer_1" data-name="Layer 1" xmlns="http://www.w3.org/2000/svg" viewBox="0 0 765.92 261.68"><defs><style>.cls-1{fill:#e8262b;}.cls-2{fill:#231f20;}</style></defs><title>Artboard 1</title><polygon class="cls-1" points="579.42 251.2 692.32 12.71 744.46 12.71 631.5 251.2 579.42 251.2"/><polygon class="cls-1" points="621.84 12.72 508.91 251.2 561.02 251.2 673.93 12.71 621.84 12.72"/><path class="cls-1" d="M686,226.28H674a6.48,6.48,0,0,0-6.48,6.47v12a6.48,6.48,0,0,0,6.48,6.48h12a6.48,6.48,0,0,0,6.48-6.48v-12A6.48,6.48,0,0,0,686,226.28Zm3.48,18.47a3.48,3.48,0,0,1-3.48,3.48H674a3.48,3.48,0,0,1-3.48-3.48v-12a3.48,3.48,0,0,1,3.48-3.47h12a3.48,3.48,0,0,1,3.48,3.47Z"/><path class="cls-1" d="M682.88,244.92l-2.54-5.4h-3.45v5.4h-2.81V232.58h8.07q3.68,0,3.68,3.13v.77a2.67,2.67,0,0,1-.73,2,3.21,3.21,0,0,1-1.72.91l2.54,5.53Zm.09-9.21c0-.42-.27-.63-.82-.63h-5.26v2.17h5.26c.55,0,.82-.19.82-.59Z"/><path class="cls-2" d="M191.13,194.5H9.29V154.15A27.45,27.45,0,0,1,14.34,138q4.18-5.88,13-11.78L131.21,56.61A3.63,3.63,0,0,0,133.73,53H9.29V12.68H191.13V53a26.51,26.51,0,0,1-4.72,15.56A49.23,49.23,0,0,1,173.05,81L69,150.37a4,4,0,0,0-2.31,3.78H191.13Z"/><path class="cls-2" d="M388.94,194.5H247.44a40.24,40.24,0,0,1-40.36-40.35V53a38.91,38.91,0,0,1,11.8-28.59,38.88,38.88,0,0,1,28.56-11.76h141.5V53H251.44a4,4,0,0,0-4,4V83.31h141.5v40.36H247.44V150a4.06,4.06,0,0,0,1.18,3,3.84,3.84,0,0,0,2.82,1.16h137.5Z"/><path class="cls-2" d="M605.45,12.68,527.68,176.42a30.33,30.33,0,0,1-12,13.47,34.3,34.3,0,0,1-17.88,4.64,35.53,35.53,0,0,1-18-4.42q-7.65-4.41-11.86-13.69L390.4,12.68h46.46l57.39,119.83a3.63,3.63,0,0,0,3.57,2.52c2,0,3.16-.84,3.57-2.52L559,12.68Z"/><polygon class="cls-2" points="9.27 215.67 45.47 215.67 45.47 220.91 30.39 220.91 30.39 251.19 24.79 251.19 24.79 220.91 9.27 220.91 9.27 215.67"/><polygon class="cls-2" points="57.97 235.04 57.97 245.94 82.8 245.94 82.8 251.19 52.38 251.19 52.38 215.67 82.8 215.67 82.8 220.91 57.97 220.91 57.97 229.79 81.56 229.79 81.56 235.04 57.97 235.04"/><path class="cls-2" d="M124,245.93v5.26H101.39q-10.56,0-10.55-8.18V223.85q0-8.19,10.55-8.18H124v5.25H101.39c-3.29,0-5,1-5,2.93V243c0,2,1.66,2.92,5,2.92Z"/><polygon class="cls-2" points="161.98 235.04 137.76 235.04 137.76 251.19 132.17 251.19 132.17 215.67 137.76 215.67 137.76 229.79 161.98 229.79 161.98 215.67 167.56 215.67 167.56 251.19 161.98 251.19 161.98 235.04"/><polygon class="cls-2" points="181.52 224.15 181.52 251.19 176.22 251.19 176.22 215.67 180.66 215.67 210.1 242.91 210.1 215.67 215.4 215.67 215.4 251.19 210.98 251.19 181.52 224.15"/><path class="cls-2" d="M250.11,215.67h-17c-7.05,0-10.55,2.56-10.55,7.67v20.18c0,5.11,3.5,7.67,10.55,7.67h17q10.53,0,10.54-7.58V223.34Q260.65,215.68,250.11,215.67Zm5,27.94c0,1.56-1.66,2.32-5,2.32h-17q-5,0-5-2.41V223.34c0-1.62,1.66-2.42,5-2.42h17c3.3,0,5,.8,5,2.42Z"/><polygon class="cls-2" points="268.13 215.67 273.73 215.67 273.73 245.93 297.73 245.93 297.73 251.19 268.13 251.19 268.13 215.67"/><path class="cls-2" d="M332.76,215.67h-17q-10.57,0-10.57,7.67v20.18q0,7.66,10.57,7.67h17q10.53,0,10.54-7.58V223.34Q343.3,215.68,332.76,215.67Zm5,27.94c0,1.56-1.66,2.32-5,2.32h-17c-3.3,0-5-.8-5-2.41V223.34c0-1.62,1.66-2.42,5-2.42h17c3.31,0,5,.8,5,2.42Z"/><path class="cls-2" d="M380.06,231.81h5.57v11.8c0,5-3.49,7.58-10.54,7.58H362q-10.56,0-10.56-7.67V223.34q0-7.67,10.56-7.67h23.16v5.25H362c-3.29,0-5,.8-5,2.42v20.18c0,1.61,1.69,2.41,5,2.41h13.07c3.31,0,5-.76,5-2.32Z"/><rect class="cls-2" x="393.97" y="215.67" width="5.6" height="35.53"/><polygon class="cls-2" points="413.94 235.04 413.94 245.94 438.8 245.94 438.8 251.19 408.36 251.19 408.36 215.67 438.8 215.67 438.8 220.91 413.94 220.91 413.94 229.79 437.51 229.79 437.51 235.04 413.94 235.04"/><path class="cls-2" d="M472.85,229.65q10.53,0,10.54,7.66v6.3q0,7.57-10.54,7.59H447.59v-5.27h25.26c3.3,0,5-.76,5-2.32v-6.3c0-1.62-1.66-2.42-5-2.42H457.14q-10.59,0-10.59-7.66v-3.89q0-7.67,10.59-7.67h24.4v5.25h-24.4c-3.32,0-5,.8-5,2.42v3.89c0,1.61,1.65,2.42,5,2.42Z"/></svg>