<?xml version="1.0" encoding="utf-8"?>
<!-- Generator: Adobe Illustrator 15.0.0, SVG Export Plug-In . SVG Version: 6.00 Build 0)  -->
<!DOCTYPE svg PUBLIC "-//W3C//DTD SVG 1.1//EN" "http://www.w3.org/Graphics/SVG/1.1/DTD/svg11.dtd">
<svg version="1.1" id="Ebene_1" xmlns="http://www.w3.org/2000/svg" xmlns:xlink="http://www.w3.org/1999/xlink" x="0px" y="0px"
	 width="396.851px" height="113.386px" viewBox="0 0 396.851 113.386" enable-background="new 0 0 396.851 113.386"
	 xml:space="preserve">
<g>
	<rect fill="#FFFFFF" width="396.851" height="113.387"/>
	<rect x="9.659" y="9.92" width="348.597" height="93.547"/>
	<path fill="#FFFFFF" d="M110.276,53.089h1.411l-5.318-36.713H93.47v19.588C102.371,36.73,109.468,43.973,110.276,53.089z
		 M73.528,56.289h-1.763l-5.234,40.508h19.926l1.224-14.455h2.672v-8.656C81.366,72.912,74.219,65.531,73.528,56.289z M102.749,43.7
		c-2.432-2.495-5.667-4.155-9.279-4.528v13.918h13.675C106.756,49.437,105.152,46.166,102.749,43.7z M107.171,56.289H93.47v14.186
		c3.612-0.373,6.848-2.031,9.279-4.527C105.211,63.42,106.833,60.053,107.171,56.289z M53.57,53.357
		c4.227-0.992,7.057-2.416,8.494-4.268c1.435-1.854,2.152-5.13,2.152-9.828c0-6.95-1.016-11.987-3.049-15.116
		c-2.032-3.127-4.702-5.204-8.008-6.229c-3.308-1.025-8.17-1.54-14.59-1.54H18.246v80.42h23.565c8.195,0,13.614-0.48,16.26-1.443
		c2.645-0.959,4.572-2.748,5.783-5.367c1.21-2.615,1.813-6.641,1.813-12.076v-7.457c0-5.232-0.839-9.119-2.516-11.652
		C61.474,56.265,58.281,54.451,53.57,53.357z M45.297,75.537c0,3.246-0.397,5.281-1.187,6.111c-0.791,0.826-2.622,1.289-5.492,1.389
		v-22.5c3.031,0.098,4.903,0.512,5.612,1.24c0.708,0.729,1.066,2.816,1.066,6.26V75.537z M44.474,46.453
		c-0.549,1.012-1.824,1.516-3.823,1.516c-0.484,0-1.161,0.018-2.032,0.051V30.135c2.097,0.035,3.507,0.184,4.233,0.447
		c0.726,0.266,1.314,0.904,1.768,1.914c0.45,1.011,0.678,2.772,0.678,5.288C45.297,42.554,45.021,45.442,44.474,46.453z
		 M76.68,53.089h13.673V39.171c-3.611,0.373-6.845,2.033-9.279,4.528C78.672,46.166,77.067,49.437,76.68,53.089z M81.073,65.947
		c2.435,2.496,5.668,4.154,9.279,4.527V56.289h-13.7C76.991,60.053,78.613,63.42,81.073,65.947z M257.295,32.471h12.051v64.326
		h20.37V32.471h12.1V16.376h-44.521V32.471z M349.211,91.393c-0.158-0.178-0.371-0.316-0.637-0.422
		c0.586-0.109,1.023-0.32,1.314-0.633c0.291-0.311,0.436-0.723,0.436-1.236c0-0.531-0.172-0.979-0.52-1.342
		c-0.344-0.363-0.898-0.545-1.662-0.545h-3.076v6.67h1.311V91.15h0.344c0.4,0,0.723,0.117,0.971,0.35
		c0.246,0.232,0.535,0.67,0.859,1.309l0.543,1.076h1.621l-0.758-1.338C349.617,91.955,349.367,91.57,349.211,91.393z
		 M347.449,90.092h-1.072v-1.811h1.207c0.451,0,0.791,0.074,1.016,0.221c0.223,0.146,0.336,0.369,0.336,0.666
		c0,0.326-0.115,0.563-0.34,0.707C348.367,90.021,347.986,90.092,347.449,90.092z M72.178,53.089h1.369
		c0.808-9.116,7.907-16.359,16.805-17.125V16.376h-13.43L72.178,53.089z M352.111,86.115c-1.18-1.246-2.686-1.871-4.512-1.871
		c-0.814,0-1.697,0.234-2.645,0.697c-0.951,0.465-1.738,1.207-2.369,2.229c-0.633,1.018-0.949,2.139-0.949,3.359
		c0,1.732,0.598,3.213,1.791,4.439c1.193,1.229,2.639,1.842,4.33,1.842c1.686,0,3.127-0.615,4.326-1.846
		c1.197-1.23,1.797-2.709,1.797-4.436C353.881,88.834,353.291,87.361,352.111,86.115z M351.242,94.096
		c-0.963,0.99-2.121,1.484-3.465,1.484c-1.355,0-2.512-0.494-3.477-1.484s-1.449-2.18-1.449-3.566c0-1.34,0.469-2.52,1.398-3.537
		c0.934-1.018,2.152-1.525,3.652-1.525c0.699,0,1.428,0.201,2.191,0.604c0.762,0.402,1.383,1.006,1.869,1.813
		s0.729,1.688,0.729,2.646C352.691,91.916,352.207,93.105,351.242,94.096z M349.668,16.376h-44.519v16.095h12.047v64.326h20.374
		V32.471h12.098V16.376z M240.238,63.02h12.729V47.72h-12.729V32.471h13.598V16.376h-33.97v80.42h35.327V80.703h-14.955V63.02z
		 M164.117,50.949c1.516-2.152,2.275-6.358,2.275-12.615c0-6.856-1.072-11.849-3.219-14.978c-2.146-3.129-4.92-5.075-8.322-5.836
		c-3.404-0.762-9.913-1.143-19.526-1.143h-14.42v80.42h20.373v-36.26c2.807,0,4.539,0.512,5.201,1.537
		c0.662,1.027,0.992,3.693,0.992,7.998v26.725h18.921V75.588c0-6.492-0.17-10.459-0.51-11.898c-0.338-1.439-1.201-3.02-2.588-4.744
		c-1.387-1.721-4.098-3.096-8.129-4.124C159.617,54.392,162.602,53.101,164.117,50.949z M147.472,40.767
		c0,3.542-0.459,5.637-1.379,6.283c-0.92,0.645-2.525,0.969-4.814,0.969V30.135c2.352,0,3.977,0.398,4.863,1.193
		s1.33,2.468,1.33,5.017V40.767z M110.296,56.289c-0.691,9.243-7.839,16.624-16.826,17.397v8.656h2.636l1.094,14.455h20.82
		l-5.869-40.508H110.296z M213.599,50.949c1.518-2.152,2.275-6.358,2.275-12.615c0-6.856-1.074-11.849-3.219-14.978
		c-2.145-3.129-4.92-5.075-8.324-5.836s-9.913-1.143-19.524-1.143h-14.42v80.42h20.371v-36.26c2.809,0,4.541,0.512,5.202,1.537
		c0.66,1.027,0.992,3.693,0.992,7.998v26.725h18.922V75.588c0-6.492-0.17-10.459-0.508-11.898c-0.34-1.439-1.203-3.02-2.59-4.744
		c-1.387-1.721-4.098-3.096-8.129-4.124C209.099,54.392,212.081,53.101,213.599,50.949z M196.952,40.767
		c0,3.542-0.461,5.637-1.379,6.283c-0.919,0.645-2.524,0.969-4.815,0.969V30.135c2.355,0,3.977,0.398,4.862,1.193
		c0.889,0.795,1.332,2.468,1.332,5.017V40.767z"/>
	<g>
		<rect x="358.256" y="9.919" fill="#C71725" width="28.937" height="93.55"/>
		<g>
			<path fill="#FFFFFF" d="M364.078,99.471v-7.617h3.463v3.119h3.278v-2.775h3.289v2.775h7.26v4.498H364.078z"/>
			<path fill="#FFFFFF" d="M364.078,86.035h17.29v4.498h-17.29V86.035z"/>
			<path fill="#FFFFFF" d="M364.078,84.271v-3.184c0-2.121,0.084-3.557,0.246-4.309c0.164-0.75,0.584-1.363,1.258-1.836
				c0.67-0.473,1.742-0.711,3.217-0.711c1.345,0,2.249,0.168,2.712,0.504c0.463,0.334,0.74,0.992,0.832,1.977
				c0.221-0.893,0.518-1.49,0.889-1.795c0.369-0.307,0.709-0.498,1.018-0.572c0.313-0.074,1.164-0.113,2.559-0.113h4.561v4.176
				h-5.744c-0.928,0-1.498,0.074-1.719,0.219c-0.223,0.148-0.332,0.529-0.332,1.15h7.795v4.494H364.078z M367.039,79.777h3.843
				c0-0.506-0.07-0.861-0.209-1.064c-0.141-0.203-0.588-0.305-1.35-0.305h-0.95c-0.549,0-0.908,0.098-1.078,0.295
				C367.123,78.896,367.039,79.256,367.039,79.777z"/>
			<path fill="#FFFFFF" d="M364.078,72.533v-7.498h3.463v3h3.278v-2.809h3.289v2.809h3.801v-3.301h3.459v7.799H364.078z"/>
			<path fill="#FFFFFF" d="M364.078,55.028l17.29-2.572v4.596l-3.109,0.24v1.611l3.109,0.271v4.646l-17.29-2.293V55.028z
				 M375.194,57.408c-1.957,0.229-4.375,0.457-7.259,0.689c3.308,0.457,5.728,0.746,7.259,0.863V57.408z"/>
			<path fill="#FFFFFF" d="M364.078,51.303V48.12c0-2.122,0.084-3.558,0.246-4.31c0.164-0.75,0.584-1.362,1.258-1.836
				c0.67-0.473,1.742-0.71,3.217-0.71c1.345,0,2.249,0.168,2.712,0.502c0.463,0.335,0.74,0.994,0.832,1.976
				c0.221-0.891,0.518-1.488,0.889-1.793c0.369-0.307,0.709-0.497,1.018-0.572c0.313-0.074,1.164-0.112,2.559-0.112h4.561v4.175
				h-5.744c-0.928,0-1.498,0.073-1.719,0.219c-0.223,0.146-0.332,0.529-0.332,1.151h7.795v4.494H364.078z M367.039,46.809h3.843
				c0-0.508-0.07-0.863-0.209-1.065c-0.141-0.203-0.588-0.305-1.35-0.305h-0.95c-0.549,0-0.908,0.099-1.078,0.295
				C367.123,45.928,367.039,46.288,367.039,46.809z"/>
			<path fill="#FFFFFF" d="M364.078,25.694h17.29v3.929l-11.674,0.006l11.674,1.565v2.788l-11.404,1.648l11.404,0.006v3.93h-17.29
				V33.75c1.041-0.173,2.266-0.351,3.678-0.533l4.397-0.64l-8.075-1.035V25.694z"/>
			<path fill="#FFFFFF" d="M369.312,14.291v4.175h-1.28c-0.598,0-0.977,0.054-1.143,0.161c-0.164,0.106-0.246,0.283-0.246,0.534
				c0,0.271,0.107,0.475,0.332,0.613c0.221,0.138,0.553,0.208,1.002,0.208c0.578,0,1.016-0.078,1.304-0.235
				c0.293-0.146,0.646-0.57,1.057-1.269c1.188-2.002,2.164-3.262,2.924-3.784c0.764-0.519,1.99-0.778,3.686-0.778
				c1.232,0,2.141,0.145,2.725,0.432c0.582,0.288,1.074,0.846,1.469,1.672c0.395,0.827,0.594,1.788,0.594,2.884
				c0,1.203-0.23,2.229-0.686,3.081c-0.457,0.851-1.037,1.409-1.74,1.671c-0.705,0.263-1.707,0.396-3,0.396h-1.135v-4.177h2.105
				c0.65,0,1.064-0.059,1.25-0.175c0.186-0.118,0.279-0.326,0.279-0.625s-0.119-0.521-0.354-0.668
				c-0.236-0.146-0.586-0.219-1.047-0.219c-1.02,0-1.686,0.14-1.998,0.416c-0.314,0.285-0.836,0.986-1.57,2.104
				c-0.74,1.117-1.277,1.858-1.613,2.221c-0.332,0.365-0.797,0.665-1.385,0.904c-0.594,0.238-1.35,0.357-2.267,0.357
				c-1.324,0-2.291-0.169-2.902-0.507c-0.613-0.339-1.094-0.885-1.439-1.64c-0.344-0.755-0.516-1.666-0.516-2.733
				c0-1.168,0.188-2.164,0.564-2.986c0.377-0.822,0.854-1.367,1.428-1.634c0.572-0.268,1.545-0.4,2.92-0.4H369.312z"/>
		</g>
	</g>
</g>
</svg>
